<svg width="58" height="40" viewBox="0 0 58 40" fill="none" xmlns="http://www.w3.org/2000/svg">
<path d="M30.766 31.4469C19.5397 41.0373 11.5679 41.7137 7.48529 37.6277C3.72366 33.8661 6.84339 24.4309 14.446 15.1131L0 0.67057H9.23151L23.5809 15.02C14.5254 24.1307 9.24532 33.8315 11.9751 36.5613C14.2355 38.8252 21.1928 35.6882 28.6988 29.3797L30.766 31.4469Z" fill="#E1E1E6"/>
<path d="M57.1007 39.3251H47.8692L33.5198 24.9757C42.5753 15.8685 47.8554 6.16417 45.1291 3.43786C42.8686 1.17398 35.9045 4.31442 28.3985 10.6229L26.3313 8.55575C37.561 -1.03812 45.5363 -1.718 49.6189 2.36803C53.3805 6.12965 50.2642 15.5648 42.6581 24.8826L57.1041 39.3251H57.1007Z" fill="#E1E1E6"/>
</svg>
